<svg xmlns="http://www.w3.org/2000/svg" xmlns:xlink="http://www.w3.org/1999/xlink" x="0" y="0" version="1.1" viewBox="0 0 114 166.8" xml:space="preserve" style="enable-background:new 0 0 114 166.8"><style type="text/css">.st164{fill:#231f20}</style><g id="Annotations"><g><path d="M48.3,15.3c-1.2,10.4-0.4,21.2,0,31.7c0.4,9.9,0.9,19.8,1.5,29.7c0.6,9.9,1.1,19.8,1.7,29.7 c0.3,5.3,0.7,10.6,1,15.9c0.3,5.2-0.1,11.1,1.7,16c2.4,6.7,13.2,8.1,15,0c1.2-5.2,0.3-10.6-0.1-16c-0.4-5.3-0.8-10.6-1.1-15.9 c-0.7-10.3-1.7-20.5-2.6-30.7c-0.9-10.3-1.9-20.5-3.1-30.7c-1.2-10.3-2.1-21-4.9-30.9C55.8,8.8,48.8,10.4,48.3,15.3L48.3,15.3z" class="st164"/></g><g><path d="M19.2,122.2c6.5,6.1,13.5,11.4,20.4,17.1c3.7,3.1,7.3,6.3,10.9,9.4c3.1,2.7,6.4,4.8,10.7,4.4 c4.6-0.5,7.7-4.3,10.8-7.4c3.4-3.4,6.8-6.9,10.1-10.3c3.4-3.4,6.7-6.9,10.1-10.3c3.6-3.7,7.3-6.8,9.3-11.7 c1.8-4.4-3.7-10.1-8.2-8.2c-7.5,3.2-13.3,11.2-19,17c-2.9,3-5.9,6-8.8,8.9c-1.4,1.4-2.7,2.7-4,4.1c-0.9,0.9-1.8,1.9-2.7,2.8 c-1.6,1.5-1.8,1.8-0.5,0.9c1.3,0,2.6,0,3.9,0c-2.7-0.4-6.1-4.5-8.2-6.2c-3.1-2.4-6.2-4.8-9.5-6.9c-6.8-4.4-13.5-8-21.3-10.2 C19.3,114.4,16.3,119.4,19.2,122.2L19.2,122.2z" class="st164"/></g></g></svg>