<svg xmlns="http://www.w3.org/2000/svg" xmlns:xlink="http://www.w3.org/1999/xlink" x="0" y="0" version="1.1" viewBox="0 0 94 252.6" xml:space="preserve" style="enable-background:new 0 0 94 252.6"><style type="text/css">.st164{fill:#231f20}</style><g id="Annotations"><g><path d="M50.5,235.5c1.4-3.9,1.2-8.7,1.3-12.8c0.1-4,0.1-8,0.1-11.9c0-8.6,0.1-17.3,0-25.9 c-0.2-17.3-0.4-34.5-0.6-51.8c-0.2-17.3-0.5-34.5-0.8-51.8c-0.3-17.1,0.5-34.7-1.1-51.8c-0.9-9.4-14.4-9.7-14.8,0 c-0.7,17.1,1,34.6,1.6,51.8c0.6,17.6,1.2,35.2,2,52.8c0.7,17.3,1.4,34.5,2.2,51.8c0.4,8.6,0.9,17.3,1.4,25.9 c0.5,7.8-0.2,17.3,2.9,24.5C46,239,49.7,237.7,50.5,235.5L50.5,235.5z" class="st164"/></g><g><path d="M21,56c12.2-6.1,22-19.3,29.2-30.5c-4.3-0.6-8.6-1.1-12.9-1.7c3.2,16.6,15.4,29,27.2,40.3 c7,6.7,17.8-4,10.7-10.7C65.1,43.9,54.5,33.9,50.9,20c-1.5-5.6-10.2-7.2-12.9-1.7c-2.9,5.9-6.3,11.7-10.2,17 c-3.9,5.2-8.6,9.8-12.4,15C12.7,54,17.6,57.7,21,56L21,56z" class="st164"/></g></g></svg>