<svg xmlns="http://www.w3.org/2000/svg" xmlns:xlink="http://www.w3.org/1999/xlink" x="0" y="0" version="1.1" viewBox="0 0 126 152.6" xml:space="preserve" style="enable-background:new 0 0 126 152.6"><style type="text/css">.st164{fill:#231f20}</style><g id="Annotations"><g><path d="M23.2,13.4c-2.6,6.1-3,13.6-3.3,20.2c-0.3,7.4,0.3,14.9,1.6,22.2c2.1,11.7,7.2,22.6,14.5,32 c7,9.1,16,16.8,26.2,22c9.7,5,22.7,9.8,33.8,8.7c3.9-0.4,7.2-2.7,7.7-6.8c0.4-3.5-1.7-8-5.6-8.6c-9.8-1.6-18.9-2.2-28-6.7 C61.4,92,53.5,86.2,47,78.9c-6.4-7.2-11.2-16-13.9-25.3c-1.9-6.6-2.6-13.2-3.2-20C29.4,27.3,29.6,20,27.4,14 C26.9,12.4,24.1,11.5,23.2,13.4L23.2,13.4z" class="st164"/></g><g><path d="M78.4,70.7c-0.9,7,3.6,15.1,6.6,21.2c1.6,3.2,3.3,6.4,5.1,9.4c1.7,2.7,5.7,6.8,6.1,9.9 c0.3-1.9,0.5-3.9,0.8-5.8c-1,1.9-3.7,4.1-5.3,5.8c-2.2,2.5-4.4,4.9-6.7,7.4c-4.4,4.9-9.1,9.7-13.3,14.8 c-6.3,7.8,3.9,18.8,11.3,11.3c6-6.1,11.4-12.9,17.1-19.4c4.5-5.2,13-11.7,10.4-19.5c-1.1-3.3-3.9-6-5.9-8.8 c-2.4-3.4-4.7-6.9-7-10.4c-3.7-5.9-6.8-14.4-12.3-18.8C82.5,65.5,78.9,67.1,78.4,70.7L78.4,70.7z" class="st164"/></g></g></svg>