<svg xmlns="http://www.w3.org/2000/svg" xmlns:xlink="http://www.w3.org/1999/xlink" x="0" y="0" version="1.1" viewBox="0 0 140 95.4" xml:space="preserve" style="enable-background:new 0 0 140 95.4"><style type="text/css">.st164{fill:#231f20}</style><g id="Annotations"><g><path d="M11.3,17.9c0.6,4.6,4.7,8.8,7.8,12c3.6,3.8,7.5,7.2,11.8,10.2C39.2,46,48.3,50.6,57.8,54 c18.5,6.6,40.7,8.7,59.7,2.7c8.1-2.6,4.7-14-3.5-12.6c-17.9,3.1-35.3,2.7-52.6-3.4c-8.2-2.9-15.9-7-23-12.1 c-3.7-2.6-7.3-5.4-10.6-8.5c-3.3-3-6.4-6.6-10.7-8.2C13.4,10.6,10.9,14.6,11.3,17.9L11.3,17.9z" class="st164"/></g><g><path d="M91.1,27.3c-1,6,3.9,12.2,7.9,16.2c2.4,2.4,5.2,4.6,8.2,6.2c2.6,1.4,6.2,1.8,8.6,3.4c-1-1.3-2-2.6-3-3.9 c0.9-2.3,0.9-2.9-0.1-1.6c-0.5,0.6-1.1,1.2-1.6,1.9c-1,1.3-2,2.6-2.9,4.1c-1.6,2.6-2.9,5.4-4,8.2c-2.3,5.9-3.7,12.4-2.5,18.6 c1.2,6.1,10.3,5.6,11.8,0c1.7-6.4,2.1-12.6,5.5-18.6c3-5.2,9.2-10.2,6.1-16.7c-2.5-5.3-9.6-5.3-14.4-7.6 c-5.2-2.5-10-6.5-13.3-11.2C96,24.3,91.6,23.9,91.1,27.3L91.1,27.3z" class="st164"/></g></g></svg>