<svg xmlns="http://www.w3.org/2000/svg" xmlns:xlink="http://www.w3.org/1999/xlink" width="30" height="120" version="1.1" viewBox="0 0 30 120"><title>Group</title><desc>Created with Sketch.</desc><g id="Page-1" fill="none" fill-rule="evenodd" stroke="none" stroke-width="1"><g id="Group"><polygon id="Fill-1" fill="#23C9C9" points="15 0 0 14.999 15 30 18.23 26.77 8.731 17.281 28.467 17.281 28.467 12.719 8.731 12.719 18.23 3.221"/><polygon id="Fill-2" fill="#46CE46" points="0 45 15 60 18.23 56.771 8.732 47.281 28.468 47.281 28.468 42.719 8.732 42.719 18.23 33.22 15 30"/><polygon id="Fill-3" fill="#E86BE5" points="0 75 15 90 18.23 86.771 8.732 77.281 28.468 77.281 28.468 72.718 8.732 72.718 18.23 63.22 15 60"/><polygon id="Fill-4" fill="#F78857" points="0 105 15 120 18.23 116.771 8.732 107.281 28.467 107.281 28.467 102.718 8.732 102.718 18.23 93.22 15 90"/></g></g></svg>