<svg xmlns="http://www.w3.org/2000/svg" xmlns:xlink="http://www.w3.org/1999/xlink" x="0" y="0" version="1.1" viewBox="0 0 292 17.5" xml:space="preserve" style="enable-background:new 0 0 292 17.5"><style type="text/css">.st74{fill:#231f20}.st252{fill:#808083}</style><g id="Layer_1"><g id="XMLID_165_"><path d="M16,3.9v10.8h-2.2V7.8l-2.9,6.8H9.3L6.4,7.9v6.8H4.2V3.9h2.4l3.5,8l3.5-8H16z" class="st252"/><path d="M25.6,14.7l-0.7-2h-4.2l-0.7,2h-2.3l3.8-10.8h2.6l3.8,10.8H25.6z M21.2,11h3.1l-1.6-4.5L21.2,11z" class="st252"/><path d="M33.2,3.9c1.7,0,3.1,0.5,4.2,1.5s1.6,2.3,1.6,3.9s-0.5,2.9-1.6,3.9c-1.1,1-2.5,1.5-4.2,1.5h-3.7V3.9H33.2z M31.8,13h1.5c1.1,0,2-0.3,2.7-1s0.9-1.6,0.9-2.7c0-1.1-0.3-2.1-0.9-2.7s-1.5-1-2.7-1h-1.5V13z" class="st252"/><path d="M47.2,3.8v1.7h-4.1v2.8h3.6V10h-3.6v3h4.1v1.7h-6.2V3.8H47.2z" class="st252"/><path d="M61.5,14.7l-0.7-2h-4.2l-0.7,2h-2.3l3.8-10.8H60l3.8,10.8H61.5z M57.1,11h3.1l-1.6-4.5L57.1,11z" class="st252"/><path d="M64.8,5.5V3.9h8v1.7h-2.9v9.1h-2.2V5.5H64.8z" class="st252"/><path d="M80.5,13.2c-1.1-1-1.6-2.4-1.6-4s0.5-2.9,1.6-4c1.1-1,2.4-1.6,3.9-1.6c1.2,0,2.2,0.3,3.1,0.9 c0.9,0.6,1.6,1.4,2,2.5h-2.6c-0.5-1-1.3-1.4-2.5-1.4c-1,0-1.8,0.3-2.4,1c-0.6,0.6-0.9,1.5-0.9,2.6s0.3,1.9,0.9,2.6 c0.6,0.6,1.4,1,2.3,1s1.6-0.2,2.1-0.7c0.5-0.4,0.8-1,1-1.8h-3.6V8.7h5.9v1.7c-0.2,1.2-0.8,2.2-1.7,3.1c-1,0.9-2.2,1.3-3.7,1.3 S81.5,14.2,80.5,13.2z" class="st74"/><path d="M93.5,13.4c0,0.4-0.1,0.6-0.4,0.9s-0.5,0.4-0.9,0.4c-0.3,0-0.6-0.1-0.9-0.4S91,13.8,91,13.4 c0-0.4,0.1-0.6,0.4-0.9c0.2-0.2,0.5-0.4,0.9-0.4c0.3,0,0.6,0.1,0.9,0.4C93.4,12.8,93.5,13.1,93.5,13.4z" class="st74"/><path d="M96.5,13.2c-1.1-1-1.6-2.4-1.6-4s0.5-2.9,1.6-4s2.4-1.6,3.9-1.6c1.2,0,2.2,0.3,3.1,0.9 c0.9,0.6,1.6,1.4,2,2.5h-2.6c-0.5-1-1.3-1.4-2.5-1.4c-1,0-1.8,0.3-2.4,1c-0.6,0.6-0.9,1.5-0.9,2.6s0.3,1.9,0.9,2.6 c0.6,0.6,1.4,1,2.4,1c1.2,0,2-0.5,2.5-1.4h2.6c-0.4,1.1-1,1.9-2,2.5c-0.9,0.6-2,0.9-3.1,0.9C98.9,14.8,97.5,14.2,96.5,13.2z" class="st74"/><path d="M112.5,14.8c-1.6,0-2.9-0.5-3.9-1.6c-1.1-1-1.6-2.4-1.6-4s0.5-2.9,1.6-4s2.4-1.6,3.9-1.6 c1.6,0,2.9,0.5,3.9,1.6s1.6,2.4,1.6,4s-0.5,2.9-1.6,4S114.1,14.8,112.5,14.8z M114.9,11.8c0.6-0.6,0.9-1.5,0.9-2.6 c0-1.1-0.3-1.9-0.9-2.6c-0.6-0.6-1.4-1-2.4-1s-1.8,0.3-2.4,1c-0.6,0.6-0.9,1.5-0.9,2.6s0.3,1.9,0.9,2.6c0.6,0.6,1.4,1,2.4,1 S114.3,12.5,114.9,11.8z" class="st74"/><path d="M119.3,17.5L123.5,0h2.1l-4.2,17.5H119.3z" class="st74"/><path d="M127,5.5V3.9h8v1.7H132v9.1h-2.2V5.5H127z" class="st74"/><path d="M143,3.8v1.7H139v2.8h3.6V10H139v3h4.1v1.7h-6.2V3.8H143z" class="st74"/><path d="M152.5,14.7l-0.7-2h-4.2l-0.7,2h-2.3l3.8-10.8h2.6l3.8,10.8H152.5z M148.2,11h3.1l-1.5-4.5L148.2,11z" class="st74"/><path d="M157.5,13.2c-1.1-1-1.6-2.4-1.6-4s0.5-2.9,1.6-4c1.1-1,2.4-1.6,3.9-1.6c1.2,0,2.2,0.3,3.1,0.9 c0.9,0.6,1.6,1.4,2,2.5h-2.6c-0.5-1-1.3-1.4-2.5-1.4c-1,0-1.8,0.3-2.4,1c-0.6,0.6-0.9,1.5-0.9,2.6s0.3,1.9,0.9,2.6 c0.6,0.6,1.4,1,2.4,1c1.2,0,2-0.5,2.5-1.4h2.6c-0.4,1.1-1,1.9-2,2.5c-0.9,0.6-2,0.9-3.1,0.9C159.9,14.8,158.6,14.2,157.5,13.2z" class="st74"/><path d="M175.4,3.9h2.2v10.8h-2.2V10h-4.6v4.6h-2.2V3.9h2.2v4.5h4.6V3.9z" class="st74"/><path d="M187.2,14.7l-0.7-2h-4.2l-0.7,2h-2.3l3.8-10.8h2.6l3.8,10.8H187.2z M182.8,11h3.1l-1.6-4.5L182.8,11z" class="st74"/><path d="M191.2,3.9h4.4c1.1,0,2,0.3,2.6,0.8c0.6,0.5,1,1.2,1,2c0,1.2-0.7,2-2.1,2.4c0.7,0.1,1.3,0.4,1.7,0.9 s0.6,1.1,0.6,1.8c0,0.8-0.3,1.5-1,2.1c-0.6,0.5-1.5,0.8-2.6,0.8h-4.6V3.9z M193.4,5.5v2.8h2c0.5,0,0.9-0.1,1.2-0.4 c0.3-0.2,0.4-0.6,0.4-1s-0.1-0.8-0.4-1c-0.3-0.2-0.7-0.4-1.2-0.4H193.4z M193.4,13h2.2c0.5,0,0.9-0.1,1.2-0.4s0.4-0.6,0.4-1.1 s-0.1-0.8-0.4-1.1S196,10,195.5,10h-2.2V13z" class="st74"/><path d="M201.4,3.9h2.2V13h3.5v1.7h-5.7V3.9z" class="st74"/><path d="M214.9,3.8v1.7h-4.1v2.8h3.6V10h-3.6v3h4.1v1.7h-6.2V3.8H214.9z" class="st74"/><path d="M229.1,3.9v10.8h-2.2V7.8l-2.9,6.8h-1.6l-2.9-6.8v6.8h-2.2V3.9h2.4l3.5,8l3.5-8H229.1z" class="st74"/><path d="M238.7,14.7l-0.7-2h-4.2l-0.7,2h-2.3l3.8-10.8h2.6l3.8,10.8H238.7z M234.4,11h3.1l-1.6-4.5L234.4,11z" class="st74"/><path d="M243.7,13.2c-1.1-1-1.6-2.4-1.6-4s0.5-2.9,1.6-4s2.4-1.6,3.9-1.6c1.2,0,2.2,0.3,3.1,0.9 c0.9,0.6,1.6,1.4,2,2.5h-2.6c-0.5-1-1.3-1.4-2.5-1.4c-1,0-1.8,0.3-2.4,1c-0.6,0.6-0.9,1.5-0.9,2.6s0.3,1.9,0.9,2.6 c0.6,0.6,1.4,1,2.4,1c1.2,0,2-0.5,2.5-1.4h2.6c-0.4,1.1-1,1.9-2,2.5c-0.9,0.6-2,0.9-3.1,0.9C246,14.8,244.7,14.2,243.7,13.2z" class="st74"/><path d="M261.6,3.9h2.2v10.8h-2.2V10h-4.6v4.6h-2.2V3.9h2.2v4.5h4.6V3.9z" class="st74"/><path d="M266.3,14.7V3.9h2.2v10.8H266.3z" class="st74"/><path d="M278,3.8h2.2v10.8H278l-4.9-7.5v7.5h-2.2V3.8h2.2l4.9,7.5V3.8z" class="st74"/><path d="M288.9,3.8v1.7h-4.1v2.8h3.6V10h-3.6v3h4.1v1.7h-6.2V3.8H288.9z" class="st74"/></g></g></svg>