<svg xmlns="http://www.w3.org/2000/svg" xmlns:xlink="http://www.w3.org/1999/xlink" width="54" height="29" version="1.1" viewBox="0 0 54 29"><title>youtube-pins</title><desc>Created with Sketch.</desc><g id="Page-1" fill="none" fill-rule="evenodd" stroke="none" stroke-width="1"><g id="youtube-pins" fill-rule="nonzero"><path id="Fill-3-Copy" fill="#2BAA5E" d="M18,19.9189876 C18,14.9038369 9,0 9,0 C9,0 0,14.9038369 0,19.9189876 C0,24.9341383 4.02958985,29 9,29 C13.9709243,29 18,24.9341383 18,19.9189876"/><path id="Fill-3-Copy-2" fill="#C95AC5" d="M36,19.9189876 C36,14.9038369 27,0 27,0 C27,0 18,14.9038369 18,19.9189876 C18,24.9341383 22.0295899,29 27,29 C31.9709243,29 36,24.9341383 36,19.9189876"/><path id="Fill-3-Copy-3" fill="#DD4D31" d="M54,19.9189876 C54,14.9038369 45,0 45,0 C45,0 36,14.9038369 36,19.9189876 C36,24.9341383 40.0295899,29 45,29 C49.9709243,29 54,24.9341383 54,19.9189876"/></g></g></svg>